<svg width="28" height="28" viewBox="0 0 28 28" fill="none" xmlns="http://www.w3.org/2000/svg">
<path d="M22.5416 6.48922C22.3645 6.39765 22.192 6.29726 22.0248 6.18844C21.5388 5.86712 21.0932 5.48852 20.6976 5.06078C19.7077 3.9282 19.338 2.77922 19.2019 1.97477H19.2073C19.0936 1.30703 19.1406 0.875 19.1477 0.875H14.6393V18.3083C14.6393 18.5423 14.6393 18.7737 14.6294 19.0023C14.6294 19.0307 14.6267 19.057 14.6251 19.0876C14.6251 19.1002 14.6251 19.1133 14.6223 19.1264C14.6223 19.1297 14.6223 19.133 14.6223 19.1362C14.5748 19.7618 14.3743 20.366 14.0384 20.8958C13.7026 21.4256 13.2417 21.8648 12.6962 22.1747C12.1278 22.4981 11.4849 22.6677 10.8309 22.6669C8.7303 22.6669 7.02788 20.9541 7.02788 18.8387C7.02788 16.7234 8.7303 15.0106 10.8309 15.0106C11.2285 15.0103 11.6236 15.0728 12.0017 15.196L12.0072 10.6055C10.8595 10.4573 9.69353 10.5485 8.58285 10.8734C7.47217 11.1983 6.44089 11.7499 5.55405 12.4934C4.77698 13.1685 4.12369 13.9741 3.62358 14.8739C3.43327 15.202 2.71522 16.5205 2.62827 18.6605C2.57358 19.8751 2.93835 21.1334 3.11226 21.6535V21.6645C3.22163 21.9707 3.64546 23.0158 4.33616 23.8968C4.89312 24.6035 5.55115 25.2243 6.28905 25.7392V25.7283L6.29999 25.7392C8.48257 27.2223 10.9025 27.125 10.9025 27.125C11.3214 27.108 12.7247 27.125 14.3183 26.3698C16.0858 25.5325 17.092 24.2851 17.092 24.2851C17.7349 23.5397 18.246 22.6903 18.6036 21.7733C19.0116 20.7009 19.1477 19.4146 19.1477 18.9005V9.6518C19.2024 9.68461 19.9308 10.1664 19.9308 10.1664C19.9308 10.1664 20.9803 10.8391 22.6176 11.2771C23.7923 11.5888 25.375 11.6545 25.375 11.6545V7.17883C24.8205 7.23898 23.6944 7.06398 22.5416 6.48922Z" fill="black"/>
</svg>
